name rise42.5664peak47.7979fall81.9185.mot
datacolumns 19
datarows 17
range 4.84331600000000 4.86998500000000
endheader
time	ground_force1_vx	ground_force1_vy	ground_force1_vz	ground_force1_px	ground_force1_py	ground_force1_pz	ground_force2_vx	ground_force2_vy	ground_force2_vz	ground_force2_px	ground_force2_py	ground_force2_pz	ground_torque1_x	ground_torque1_y	ground_torque1_z	ground_torque2_x	ground_torque2_y	ground_torque2_z	
4.84331600000000	-4.68206400000000	40.77136800000000	-8.45848900000000	0.28079900000000	0.00000000000000	0.07807100000000	-50.58188300000000	813.03539499999999	-50.33826800000000	0.07663500000000	0.00000000000000	-0.08158100000000	0.00000000000000	-5.22717000000000	0.00000000000000	0.00000000000000	-14.17093500000000	0.00000000000000	
4.84498000000000	-5.08537700000000	47.54260100000000	-9.51974700000000	0.28355300000000	0.00000000000000	0.07897300000000	-51.12036100000000	810.66273000000001	-49.88840100000000	0.07586100000000	0.00000000000000	-0.08146300000000	0.00000000000000	-5.92460700000000	0.00000000000000	0.00000000000000	-14.12474100000000	0.00000000000000	
4.84665000000000	-5.38506800000000	54.33644400000000	-10.48707800000000	0.28601600000000	0.00000000000000	0.07981400000000	-51.66316000000000	808.13535999999999	-49.40970500000000	0.07508500000000	0.00000000000000	-0.08134100000000	0.00000000000000	-6.57277000000000	0.00000000000000	0.00000000000000	-14.07870600000000	0.00000000000000	
4.84831600000000	-5.56757300000000	61.06100400000000	-11.33812800000000	0.28823700000000	0.00000000000000	0.08060300000000	-52.20994300000000	805.45198600000003	-48.90245700000000	0.07430700000000	0.00000000000000	-0.08121500000000	0.00000000000000	-7.15758400000000	0.00000000000000	0.00000000000000	-14.03287900000000	0.00000000000000	
4.84998200000000	-5.62485000000000	67.64864600000000	-12.05801800000000	0.29025400000000	0.00000000000000	0.08134500000000	-52.76031400000000	802.61136199999999	-48.36699000000000	0.07352900000000	0.00000000000000	-0.08108400000000	0.00000000000000	-7.66955700000000	0.00000000000000	0.00000000000000	-13.98730000000000	0.00000000000000	
4.85164700000000	-5.55427200000000	74.05787599999999	-12.63944400000000	0.29210000000000	0.00000000000000	0.08204600000000	-53.31382500000000	799.61229000000003	-47.80369400000000	0.07275000000000	0.00000000000000	-0.08094900000000	0.00000000000000	-8.10388800000000	0.00000000000000	0.00000000000000	-13.94200000000000	0.00000000000000	
4.85331100000000	-5.35810200000000	80.27275100000000	-13.08215000000000	0.29380100000000	0.00000000000000	0.08271000000000	-53.86997200000000	796.45362000000000	-47.21300900000000	0.07197000000000	0.00000000000000	-0.08081000000000	0.00000000000000	-8.46016300000000	0.00000000000000	0.00000000000000	-13.89700400000000	0.00000000000000	
4.85498400000000	-5.04266000000000	86.30029500000001	-13.39190900000000	0.29537900000000	0.00000000000000	0.08334100000000	-54.42819200000000	793.13425099999995	-46.59543200000000	0.07119200000000	0.00000000000000	-0.08066600000000	0.00000000000000	-8.74174500000000	0.00000000000000	0.00000000000000	-13.85232700000000	0.00000000000000	
4.85665000000000	-4.61730100000000	92.16646299999999	-13.57918500000000	0.29685200000000	0.00000000000000	0.08394200000000	-54.98786700000000	789.65313500000002	-45.95151000000000	0.07041300000000	0.00000000000000	-0.08051800000000	0.00000000000000	-8.95495900000000	0.00000000000000	0.00000000000000	-13.80797600000000	0.00000000000000	
4.85831500000000	-4.09333000000000	97.91125500000000	-13.65764500000000	0.29823600000000	0.00000000000000	0.08451600000000	-55.54832100000000	786.00927100000001	-45.28184300000000	0.06963700000000	0.00000000000000	-0.08036600000000	0.00000000000000	-9.10816600000000	0.00000000000000	0.00000000000000	-13.76394600000000	0.00000000000000	
4.85998700000000	-3.48293900000000	103.58352200000000	-13.64266800000000	0.29954300000000	0.00000000000000	0.08506500000000	-56.10882200000000	782.20171000000005	-44.58708000000000	0.06886200000000	0.00000000000000	-0.08020900000000	0.00000000000000	-9.21084000000000	0.00000000000000	0.00000000000000	-13.72022400000000	0.00000000000000	
4.86164400000000	-2.79827200000000	109.23594400000000	-13.54997100000000	0.30078400000000	0.00000000000000	0.08559100000000	-56.66858000000000	778.22955500000000	-43.86791900000000	0.06808900000000	0.00000000000000	-0.08004800000000	0.00000000000000	-9.27270300000000	0.00000000000000	0.00000000000000	-13.67678700000000	0.00000000000000	
4.86331900000000	-2.05064100000000	114.92055100000000	-13.39444200000000	0.30196700000000	0.00000000000000	0.08609500000000	-57.22675000000000	774.09196799999995	-43.12510700000000	0.06732000000000	0.00000000000000	-0.07988300000000	0.00000000000000	-9.30299300000000	0.00000000000000	0.00000000000000	-13.63360200000000	0.00000000000000	
4.86498500000000	-1.24996200000000	120.68505000000000	-13.18924400000000	0.30309900000000	0.00000000000000	0.08658100000000	-57.78242900000000	769.78816300000005	-42.35943700000000	0.06655400000000	0.00000000000000	-0.07971300000000	0.00000000000000	-9.30989100000000	0.00000000000000	0.00000000000000	-13.59062300000000	0.00000000000000	
4.86664800000000	-0.40437900000000	126.57008399999999	-12.94519800000000	0.30418800000000	0.00000000000000	0.08704800000000	-58.33466200000000	765.31741899999997	-41.57174600000000	0.06579200000000	0.00000000000000	-0.07953900000000	0.00000000000000	-9.30012400000000	0.00000000000000	0.00000000000000	-13.54779800000000	0.00000000000000	
4.86831000000000	0.47988700000000	132.60749300000001	-12.67045800000000	0.30523800000000	0.00000000000000	0.08749900000000	-58.88243700000000	760.67907800000000	-40.76291600000000	0.06503500000000	0.00000000000000	-0.07936000000000	0.00000000000000	-9.27875400000000	0.00000000000000	0.00000000000000	-13.50505900000000	0.00000000000000	
4.86998500000000	1.39853500000000	138.81950399999999	-12.37043700000000	0.30625200000000	0.00000000000000	0.08793300000000	-59.42469100000000	755.87254900000005	-39.93387000000000	0.06428400000000	0.00000000000000	-0.07917700000000	0.00000000000000	-9.24911700000000	0.00000000000000	0.00000000000000	-13.46233100000000	0.00000000000000	
